# xmcd
#
# Track frame offsets: 
#        150
#        13044
#        25914
#        44641
#        59573
#        73110
#        86685
#        104968
#        119575
#        136738
#        149771
#        164792
#        178982
#        189837
#        208954
#
# Disc length: 2969 seconds
#
# Revision: 0
# Processed by: cddbd v1.5.2PL0 Copyright (c) Steve Scherf et al.
# Submitted via: ExactAudioCopyFreeDBPlugin 1.0
#
DISCID=f80b970f
DTITLE=Blueland - More Than Enough
DYEAR=2018
DGENRE=Bluegrass
TTITLE0=Cold Virginia Rain
TTITLE1=Julie
TTITLE2=My Last Name
TTITLE3=Stále nádej mám
TTITLE4=I'm Not Through Loving You
TTITLE5=Only You, Lord
TTITLE6=Between The Rows
TTITLE7=More Than Enough
TTITLE8=Polnočné stretnutie
TTITLE9=Miner's Prayer
TTITLE10=Looking For Yourself
TTITLE11=Strašiak
TTITLE12=Daniel Prayed
TTITLE13=Time
TTITLE14=Giving My Soul Back To Him
EXTD=
EXTT0=
EXTT1=
EXTT2=
EXTT3=
EXTT4=
EXTT5=
EXTT6=
EXTT7=
EXTT8=
EXTT9=
EXTT10=
EXTT11=
EXTT12=
EXTT13=
EXTT14=
PLAYORDER=
